<svg xmlns="http://www.w3.org/2000/svg" version="1.1" xmlns:xlink="http://www.w3.org/1999/xlink" xmlns:svgjs="http://svgjs.dev/svgjs" width="1500" height="1500" viewBox="0 0 1500 1500"><rect width="1500" height="1500" fill="transparent"></rect><g transform="matrix(0.6666666666666666,0,0,0.6666666666666666,249.38735130138122,296.3682901744034)"><svg viewBox="0 0 272 247" data-background-color="#ffffff" preserveAspectRatio="xMidYMid meet" height="1362" width="1500" xmlns="http://www.w3.org/2000/svg" xmlns:xlink="http://www.w3.org/1999/xlink"><g id="tight-bounds" transform="matrix(1,0,0,1,0.16678144610656886,-0.09997365579206985)"><svg viewBox="0 0 271.66657810786916 247.2" height="247.2" width="271.66657810786916"><g><svg viewBox="0 0 271.66657810786916 247.2" height="247.2" width="271.66657810786916"><g><svg viewBox="0 0 271.66657810786916 247.2" height="247.2" width="271.66657810786916"><g id="textblocktransform"><svg viewBox="0 0 271.66657810786916 247.2" height="247.2" width="271.66657810786916" id="textblock"><g><svg viewBox="0 0 271.66657810786916 247.2" height="247.2" width="271.66657810786916"><path d="M271.031 53.02C269.753 27.36 266.113 20.227 266.113 20.227 254.938-6.202 240.992-0.506 228.463 3.292 206.342 3.446 184.311 9.091 162.242 12.119 115.919 12.581 69.201 4.986 23.108 23.717 18.778 29.464-4.492 24.846 0.77 56.304 2.149 69.39 7.181 83.913 7.028 95.922 7.718 98.026 8.676 93.202 9.084 96.23 10.515 104.39 12.852 100.541 14.768 105.365 12.099 118.246 14.014 128.971 15.841 140.21 12.622 143.135 8.497 141.749 6.645 151.449 6.453 158.479 5.419 157.145 4.282 156.837 3.452 156.632 1.779 157.402 2.06 159.608 3.018 167.152-1.095 171.514 1.485 178.904-0.29 186.91 2.711 193.838 2.303 202.511 2.252 204.255 2.533 205.744 2.98 206.154 4.959 208.361 2.073 212.672 2.379 217.342 22.686 249.262 44.717 227.195 65.522 241.872 70.925 231.608 66.863 245.516 69.022 243.36 70.708 240.846 71.934 251.263 73.837 245.362 74.13 243.668 73.683 239.665 74.731 240.435 75.28 240.846 75.765 240.743 75.842 238.382 75.957 234.841 74.948 237.048 74.68 235.201 77.579 225.861 76.863 248.081 79.584 247.158 79.456 244.438 78.664 240.538 80.286 241.051 81.896 237.151 81.947 233.918 83.377 242.693 83.428 244.592 83.684 245.926 84.092 246.85 88.562 237.305 93.007 250.237 97.694 245.926 100.568 241.205 103.326 248.492 106.238 246.696 107.26 245.259 108.294 242.693 109.278 247.004 121.322 247.928 134.157 244.079 145.575 247.158 176.086 241.41 208.692 249.518 240.864 241.923 248.45 238.998 256.33 234.841 263.725 231.506 263.725 231.506 269.715 222.371 269.715 181.316S270.992 145.393 271.184 112.703C271.375 80.013 272.269 78.679 270.992 53.02Z" opacity="1" fill="#ed3b43" data-fill-palette-color="tertiary"></path><g transform="matrix(1,0,0,1,55.76832,26.230666666666668)"><svg width="160.12993810786915" viewBox="2 -36.82 30.28 36.82" height="194.73866666666666" data-palette-color="#ffffff"><path d="M30.03-28.27L30.03-28.27Q30.03-26.37 29.36-24.98 28.69-23.58 27.69-22.58L27.69-22.58Q25.9-20.85 23.24-19.85L23.24-19.85Q27.54-19.02 29.54-17.29L29.54-17.29Q32.28-14.89 32.28-10.16L32.28-10.16Q32.28-5.91 29-3.1L29-3.1Q25.42 0 18.95 0L18.95 0 2 0 2-2.08 5.71-2.64 5.71-34.18 2-34.74 2-36.82 18.29-36.82Q24.05-36.82 27.12-34.47L27.12-34.47Q30.03-32.28 30.03-28.27ZM18.41-18.04L10.3-18.04 10.3-2.93 17.21-2.93Q25.32-2.93 27.03-7.35L27.03-7.35Q27.56-8.74 27.56-10.39 27.56-12.04 26.99-13.42 26.42-14.79 25.27-15.82L25.27-15.82Q22.78-18.04 18.41-18.04L18.41-18.04ZM17.72-33.86L10.3-33.86 10.3-20.7 17.26-20.7Q22.44-20.7 24.49-24.22L24.49-24.22Q25.27-25.54 25.27-27.59L25.27-27.59Q25.27-30.86 23.46-32.36 21.66-33.86 17.72-33.86L17.72-33.86Z" opacity="1" transform="matrix(1,0,0,1,0,0)" fill="#ffffff" class="wordmark-text-0" data-fill-palette-color="quaternary" id="text-0"></path></svg></g></svg></g></svg></g></svg></g><g></g></svg></g><defs></defs></svg><rect width="271.66657810786916" height="247.2" fill="none" stroke="none" visibility="hidden"></rect></g></svg></g></svg>